<mxfile host="app.diagrams.net" modified="2023-04-25T02:34:41.212Z" agent="Mozilla/5.0 (Windows NT 10.0; Win64; x64) AppleWebKit/537.36 (KHTML, like Gecko) Chrome/112.0.0.0 Safari/537.36 Edg/112.0.1722.39" etag="ilBO4dwVRtw24PUPG0CK" version="21.2.1" type="github">
  <diagram name="Page-1" id="blPJi57fPE9SoPkt4T-Y">
    <mxGraphModel dx="2100" dy="1162" grid="1" gridSize="10" guides="1" tooltips="1" connect="1" arrows="1" fold="1" page="1" pageScale="1" pageWidth="850" pageHeight="1100" math="0" shadow="0">
      <root>
        <mxCell id="0" />
        <mxCell id="1" parent="0" />
      </root>
    </mxGraphModel>
  </diagram>
</mxfile>
